<?xml version="1.0" encoding="utf-8"?>
<!-- Generator: Adobe Illustrator 19.0.0, SVG Export Plug-In . SVG Version: 6.00 Build 0)  -->
<svg version="1.1" id="Layer_1" xmlns="http://www.w3.org/2000/svg" xmlns:xlink="http://www.w3.org/1999/xlink" x="0px" y="0px"
	 viewBox="-123 367 343 60" style="enable-background:new -123 367 343 60;" xml:space="preserve">
<style type="text/css">
	.st0{fill:#2B8BCA;}
</style>
<title>logo</title>
<desc>Created with Sketch.</desc>
<g id="Landing">
	<g id="logo">
		<g id="logo_altera">
			<g id="Layer_1_1_">
				<g id="Group_1_">
					<g id="Group-127">
						<path id="Shape" class="st0" d="M-92.7,366.7c4.7,0,9.1,1.1,13,3c-1.4,0.3-2.7,0.8-4.2,1.4c-5.8,3-11.7,9.1-17.6,18.4
							c-1.5-0.2-2.6-0.2-3.5-0.2c-3.9,0-7.3,0.8-9.9,2.4c-2.6,1.7-3.9,3.6-3.9,6.1c0,1.2,0.5,2.1,1.2,2.9c0.8,0.6,1.8,1.1,2.9,1.1
							s2-0.3,2.7-0.8c0.8-0.5,1.1-1.1,1.1-1.7s-0.2-1.2-0.3-1.7c-0.2-0.5-0.5-0.6-0.6-0.6c0.5-1.2,1.4-2,2.7-2.6
							c1.4-0.5,3-0.9,5.2-0.9c-1.5,2.6-2.9,5.2-4.1,7.9c-3.2,6.8-5.2,12.6-5.8,16.8c-5.6-5.5-9.1-13.1-9.1-21.6
							C-122.6,380-109.2,366.7-92.7,366.7L-92.7,366.7L-92.7,366.7z M-73.3,373.9l-9.9,46.4h-9.7l5.2-24.6c-3-1.4-6.1-2.1-9.1-2.4
							c-4.1,9-6.8,17.3-8.2,24.7c-0.5,2.1-0.6,3.9-0.6,5.5c3.9,1.8,8.2,2.9,12.9,2.9c16.5,0,29.9-13.4,29.9-29.9
							C-63,387.4-66.9,379.4-73.3,373.9L-73.3,373.9L-73.3,373.9z M-95.4,390.3c3,0.6,5.8,1.4,8.2,2.3l3.9-18.4
							C-87.1,376.4-91,381.7-95.4,390.3L-95.4,390.3z"/>
						<g id="Group" transform="translate(75.835200, 17.142857)">
							<polygon id="Shape_1_" class="st0" points="123.4,373.1 123.4,376.2 130.2,376.2 130.2,391.4 134.2,391.4 134.2,376.2 
								141,376.2 141,373.1 							"/>
							<path id="Shape_2_" class="st0" d="M111.4,386.3c-0.5-0.8-0.6-2-0.6-3.8c0-1.5,0.2-2.7,0.3-3.5c0.6-2,2-2.9,4.4-2.9h6.5v-3
								h-7.7c-2.4,0-4.2,0.6-5.6,2s-2.1,3.8-2.1,7.4c0,3,0.6,5.3,1.7,6.7c1.2,1.5,3,2.3,5.5,2.3h8.8v-3h-6.5
								C113.6,388.2,112,387.6,111.4,386.3L111.4,386.3z"/>
							<path id="Shape_3_" class="st0" d="M104,382.9c0.6-0.6,0.9-1.5,0.9-2.7c0-2.9-0.9-4.9-2.6-5.9c-1.2-0.8-3.2-1.2-6.1-1.2
								c-3.2,0-5.5,0.6-6.8,1.7c-0.9,0.8-1.5,1.8-1.8,3.2c-0.3,0.9-0.3,2.4-0.3,4.4c0,3.2,0.5,5.3,1.4,6.7c1.1,1.5,2.9,2.3,5.6,2.3
								h10v-3h-8.9c-2.1,0-3.3-0.8-3.6-2.1c-0.2-0.6-0.3-1.5-0.3-2.4h10.6C102.8,383.6,103.5,383.3,104,382.9L104,382.9z
								 M99.8,380.4h-8.3c0-1.5,0.3-2.6,0.8-3.2c0.8-0.8,2-1.2,3.8-1.2c1.5,0,2.7,0.3,3.5,0.9s1.1,1.4,1.1,2.4
								C100.7,380.1,100.4,380.4,99.8,380.4L99.8,380.4z"/>
							<path id="Shape_4_" class="st0" d="M84.6,380.9c0.6-0.6,0.8-1.7,0.8-3c0-1.5-0.3-2.6-0.9-3.3c-0.8-0.9-2.1-1.4-4.1-1.4h-8.3
								c-1.1,0-1.8,0.3-2.4,0.8s-0.8,1.2-0.8,2.1v12.6c0,0.9,0.3,1.7,0.8,2c0.5,0.5,1.2,0.6,2.4,0.6h8.6c1.7,0,2.9-0.5,3.8-1.2
								c0.8-0.8,1.2-2.1,1.2-3.9c0-1.4-0.3-2.4-0.8-3c-0.6-0.6-1.2-1.1-2.3-1.2l0,0C83.2,381.8,84,381.5,84.6,380.9L84.6,380.9z
								 M80.6,387.7c-0.3,0.3-0.9,0.6-1.8,0.6h-5c-0.5,0-0.8-0.2-0.9-0.3s-0.2-0.5-0.2-0.8v-3.7h6.2c0.8,0,1.4,0.2,1.7,0.6
								c0.3,0.3,0.5,0.9,0.5,1.8C81.2,386.7,81.1,387.3,80.6,387.7L80.6,387.7z M80.6,379.8c-0.3,0.3-0.9,0.6-1.7,0.6h-6.2v-3.2
								c0-0.3,0.2-0.6,0.3-0.8s0.5-0.2,0.8-0.2h5.3c0.8,0,1.2,0.2,1.7,0.5c0.3,0.3,0.6,0.9,0.6,1.7
								C81.2,379.1,81.1,379.5,80.6,379.8L80.6,379.8z"/>
							<polygon id="Shape_5_" class="st0" points="62,380.4 53.2,380.4 53.2,373.1 49.2,373.1 49.2,391.4 53.2,391.4 53.2,383.5 
								62,383.5 62,391.4 65.9,391.4 65.9,373.1 62,373.1 							"/>
							<path id="Shape_6_" class="st0" d="M42.6,367.1c-0.9,0-1.5,0.2-2.1,0.6c-0.6,0.5-1.2,1.1-1.8,2.1L29,385.6
								c-0.3,0.5-0.5,0.8-0.6,0.8c-0.3,0-0.5-0.3-0.5-1.1l0.2-17.9h-4.6v20.2c0,2.7,1.2,4.1,3.5,4.1c1.1,0,2-0.3,2.6-0.8
								c0.3-0.3,0.8-0.8,1.2-1.5l9.9-15.9c0.5-0.8,0.8-1.1,0.9-1.1c0.3,0,0.3,0.3,0.3,0.8l-0.2,18.2h4.6v-20
								C46.2,368.4,45,367.1,42.6,367.1L42.6,367.1z"/>
							<path id="Shape_7_" class="st0" d="M8.9,372.8H-1.6v3.2h9.1c0.9,0,1.5,0.3,2,0.8c0.3,0.5,0.5,1.1,0.5,1.8v1.4H2
								c-1.5,0-2.6,0.3-3.3,1.1c-1.1,0.9-1.5,2.4-1.5,4.6c0,2.4,0.6,4.1,1.7,5c0.8,0.6,1.8,0.9,3.3,0.9H11c1.2,0,2.1-0.3,2.6-0.8
								s0.8-1.2,0.8-2.4v-9.6C14.2,374.8,12.4,372.8,8.9,372.8L8.9,372.8z M10.1,387.3c0,0.3-0.2,0.6-0.3,0.8
								c-0.2,0.2-0.5,0.2-0.9,0.2H3.3c-0.6,0-0.9-0.2-1.4-0.6c-0.3-0.5-0.6-1.1-0.6-2s0.2-1.7,0.5-2c0.3-0.5,0.8-0.6,1.5-0.6h6.8
								V387.3L10.1,387.3z"/>
							<path id="Shape_8_" class="st0" d="M-12,372.8h-6.5c-1.1,0-1.8,0.2-2.3,0.6c-0.8,0.6-1.1,1.4-1.1,2.3v21.6h4.1v-5.9h5.2
								c3,0,5.3-0.9,6.5-2.6c0.9-1.4,1.5-3.8,1.5-7s-0.6-5.5-2-6.8C-7.9,373.4-9.8,372.8-12,372.8L-12,372.8z M-9.8,386.5
								c-0.8,1.2-2,1.7-3.5,1.7h-4.6v-11.4c0-0.3,0.2-0.5,0.3-0.6c0.2-0.2,0.3-0.3,0.6-0.3h3.9c1.8,0,2.9,0.8,3.5,2.1
								c0.3,0.8,0.5,2.1,0.5,3.9C-9,384.2-9.1,385.7-9.8,386.5L-9.8,386.5z"/>
							<path id="Shape_9_" class="st0" d="M-25.1,382.7c0.6-0.6,0.9-1.5,0.9-2.7c0-2.9-0.9-4.9-2.6-6.1c-1.2-0.8-3.3-1.2-6.1-1.2
								c-3.2,0-5.6,0.6-7,1.7c-0.9,0.8-1.5,1.8-1.8,3.2c-0.3,0.9-0.3,2.4-0.3,4.6c0,3.2,0.5,5.5,1.4,6.7c1.1,1.5,3,2.3,5.6,2.3h10.3
								V388h-9.1c-2.1,0-3.3-0.8-3.8-2.1c-0.2-0.6-0.3-1.5-0.3-2.6h10.8C-26.3,383.5-25.5,383.2-25.1,382.7L-25.1,382.7z
								 M-29.3,380.3h-8.5c0-1.5,0.3-2.6,0.9-3.2c0.8-0.8,2-1.2,3.9-1.2c1.5,0,2.7,0.3,3.5,0.9s1.2,1.4,1.2,2.4
								C-28.4,380-28.7,380.3-29.3,380.3L-29.3,380.3z"/>
							<polygon id="Shape_10_" class="st0" points="-60.9,376 -53.9,376 -53.9,391.4 -49.8,391.4 -49.8,376 -42.8,376 -42.8,372.8 
								-60.9,372.8 							"/>
							<path id="Shape_11_" class="st0" d="M-63,379.8h-8.3v-7h-4.1v15.7c0,1.1,0.3,1.7,0.8,2.1c0.5,0.5,1.2,0.6,2.1,0.6h9.4
								c1.7,0,2.9-0.3,3.5-0.9c0.9-0.9,1.4-2.4,1.4-4.6s-0.5-3.6-1.2-4.6C-60.4,380.3-61.5,379.8-63,379.8L-63,379.8z M-63.1,387.6
								c-0.3,0.5-0.9,0.6-1.8,0.6h-5.3c-0.5,0-0.8-0.2-0.9-0.3c-0.2-0.2-0.3-0.5-0.3-1.1v-3.9h6.7c0.8,0,1.4,0.2,1.7,0.6
								c0.3,0.3,0.5,1.1,0.5,2C-62.5,386.5-62.7,387.3-63.1,387.6L-63.1,387.6z"/>
							<path id="Shape_12_" class="st0" d="M-86.7,372.7c-1.4,0-2.3,0.5-2.7,1.5l-7.3,16.5l-8.9-21.4c-0.5-1.1-0.9-1.7-1.5-2.1
								s-1.4-0.6-2.4-0.6c-1.1,0-2,0.2-2.4,0.6c-0.6,0.5-1.1,1.1-1.5,2.1l-9.4,22h4.9l2.4-6.2h11.8l2.6,6.2h4.4h0.5h3.6L-87,377
								c0.2-0.3,0.3-0.5,0.3-0.5c0.2,0,0.2,0.2,0.3,0.5l5.6,14.3h4.2l-7.4-17.2C-84.4,373.1-85.3,372.7-86.7,372.7L-86.7,372.7z
								 M-114.4,381.9l3.9-10c0.3-0.6,0.5-1.1,0.8-1.1c0.2,0,0.5,0.3,0.8,1.1l3.9,10H-114.4L-114.4,381.9z"/>
						</g>
						<path id="_xAE_" class="st0" d="M231.7,401c2.6,0,4.8,0.9,6.6,2.7s2.7,4,2.7,6.6s-0.9,4.8-2.7,6.6s-4,2.7-6.6,2.7
							s-4.8-0.9-6.6-2.7c-1.8-1.8-2.7-4-2.7-6.6s0.9-4.8,2.7-6.6S229.1,401,231.7,401z M231.7,418.4c2.2,0,4.1-0.8,5.7-2.4
							c1.6-1.6,2.4-3.5,2.4-5.7s-0.8-4.2-2.4-5.7c-1.6-1.6-3.5-2.4-5.7-2.4s-4.1,0.8-5.7,2.4s-2.4,3.5-2.4,5.7s0.8,4.2,2.4,5.7
							C227.6,417.7,229.5,418.4,231.7,418.4z M234,410.6L234,410.6c0.8,0.2,1.4,0.7,1.6,1.7l1.3,3.4h-1.8l-1.2-3.4
							c-0.3-0.8-0.9-1.1-1.8-1.1h-2.9v4.5h-1.7v-10.9c1-0.1,2.5-0.1,4.6-0.1c1.6,0,2.7,0.2,3.3,0.7c0.7,0.4,1,1.3,1,2.5
							c0,0.8-0.2,1.5-0.6,1.9C235.5,410.2,234.9,410.5,234,410.6z M229.2,410h2.9c1,0,1.7-0.2,2.1-0.5c0.4-0.3,0.6-0.8,0.5-1.5
							c0-0.8-0.1-1.3-0.5-1.6c-0.4-0.3-1.1-0.4-2.1-0.4h-2.9V410z"/>
					</g>
				</g>
			</g>
		</g>
	</g>
</g>
</svg>
