<?xml version="1.0" encoding="UTF-8"?>
<svg width="42px" height="42px" viewBox="0 0 42 42" version="1.1" xmlns="http://www.w3.org/2000/svg" xmlns:xlink="http://www.w3.org/1999/xlink">
    <!-- Generator: Sketch 41.2 (35397) - http://www.bohemiancoding.com/sketch -->
    <title>logo</title>
    <desc>Created with Sketch.</desc>
    <defs></defs>
    <g id="Landing" stroke="none" stroke-width="1" fill="none" fill-rule="evenodd">
        <g id="logo" fill="#f50505">
            <path d="M20.9754049,0 C24.2429303,0 27.2996476,0.745384615 30.0401527,2.12967033 C29.0915163,2.34263736 28.1428799,2.66208791 27.0888395,3.08802198 C23.0834858,5.21769231 18.972728,9.47703297 14.8619703,15.9725275 C13.8079298,15.866044 13.0701015,15.866044 12.4376773,15.866044 C9.69717211,15.866044 7.37828312,16.3984615 5.58641437,17.5697802 C3.79454561,18.7410989 2.84590921,20.1253846 2.84590921,21.8291209 C2.84590921,22.680989 3.16212134,23.3198901 3.68914156,23.8523077 C4.21616179,24.2782418 4.9539901,24.5976923 5.69181841,24.5976923 C6.42964672,24.5976923 7.06207099,24.3847253 7.58909121,24.0652747 C8.11611144,23.7458242 8.32691953,23.3198901 8.32691953,22.893956 C8.32691953,22.468022 8.22151548,22.0420879 8.11611144,21.7226374 C8.01070739,21.4031868 7.7998993,21.2967033 7.69449526,21.2967033 C8.01070739,20.4448352 8.64313166,19.9124176 9.59176806,19.4864835 C10.5404045,19.167033 11.699849,18.8475824 13.1755056,18.8475824 C12.1214651,20.6578022 11.1728287,22.468022 10.3295964,24.3847253 C8.11611144,29.1764835 6.74585886,33.2228571 6.32424268,36.2043956 C2.42429303,32.370989 0,27.0468132 0,21.0837363 C0.210808089,9.37054945 9.48636402,0 20.9754049,0 L20.9754049,0 L20.9754049,0 Z M34.4671226,5.11120879 L27.6158597,37.6951648 L20.8700008,37.6951648 L24.4537384,20.4448352 C22.3456575,19.4864835 20.2375766,18.9540659 18.1294957,18.7410989 C15.2835865,25.0236264 13.3863137,30.8802198 12.4376773,36.0979121 C12.1214651,37.5886813 12.0160611,38.8664835 12.0160611,39.9313187 C14.7565662,41.2091209 17.7078795,41.9545055 20.9754049,41.9545055 C32.4644457,41.9545055 41.7400017,32.583956 41.7400017,20.9772527 C41.6345976,14.5882418 38.8940925,8.94461538 34.4671226,5.11120879 L34.4671226,5.11120879 L34.4671226,5.11120879 Z M19.0781321,16.6114286 C21.186213,17.0373626 23.0834858,17.5697802 24.7699505,18.2086813 L27.5104557,5.32417582 C24.8753545,6.81494505 22.1348494,10.5418681 19.0781321,16.6114286 L19.0781321,16.6114286 Z" id="Shape"></path>
        </g>
    </g>
</svg>