<?xml version="1.0" encoding="UTF-8"?>
<svg width="364px" height="60px" viewBox="0 0 364 60" version="1.1" xmlns="http://www.w3.org/2000/svg" xmlns:xlink="http://www.w3.org/1999/xlink">
    <!-- Generator: Sketch 41.2 (35397) - http://www.bohemiancoding.com/sketch -->
    <title>logo</title>
    <desc>Created with Sketch.</desc>
    <defs></defs>
    <g id="Landing" stroke="none" stroke-width="1" fill="none" fill-rule="evenodd">
        <g id="logo" fill="#2B8BCA">
            <g id="logo_altera">
                <g id="Layer_1">
                    <g id="Group">
                        <g id="Group-127">
                            <path d="M30.1824097,0.151785714 C34.8841921,0.151785714 39.2826338,1.21428571 43.2260642,3.1875 C41.8610306,3.49107143 40.495997,3.94642857 38.979293,4.55357143 C33.2158177,7.58928571 27.3006721,13.6607143 21.3855265,22.9196429 C19.8688225,22.7678571 18.8071297,22.7678571 17.8971073,22.7678571 C13.9536769,22.7678571 10.616928,23.5267857 8.03853123,25.1964286 C5.46013442,26.8660714 4.09510082,28.8392857 4.09510082,31.2678571 C4.09510082,32.4821429 4.55011202,33.3928571 5.30846402,34.1517857 C6.06681603,34.7589286 7.12850883,35.2142857 8.19020163,35.2142857 C9.25189444,35.2142857 10.1619168,34.9107143 10.9202688,34.4553571 C11.6786208,34 11.9819616,33.3928571 11.9819616,32.7857143 C11.9819616,32.1785714 11.8302912,31.5714286 11.6786208,31.1160714 C11.5269504,30.6607143 11.2236096,30.5089286 11.0719392,30.5089286 C11.5269504,29.2946429 12.4369729,28.5357143 13.8020065,27.9285714 C15.1670401,27.4732143 16.8354145,27.0178571 18.9588001,27.0178571 C17.4420961,29.5982143 16.0770625,32.1785714 14.8636993,34.9107143 C11.6786208,41.7410714 9.70690564,47.5089286 9.10022404,51.7589286 C3.48841921,46.2946429 0,38.7053571 0,30.2053571 C0.303340801,13.5089286 13.6503361,0.151785714 30.1824097,0.151785714 L30.1824097,0.151785714 L30.1824097,0.151785714 Z M49.596221,7.4375 L39.737645,53.8839286 L30.0307393,53.8839286 L35.1875329,29.2946429 C32.1541249,27.9285714 29.1207169,27.1696429 26.0873089,26.8660714 C21.9922081,35.8214286 19.2621409,44.1696429 17.8971073,51.6071429 C17.4420961,53.7321429 17.2904257,55.5535714 17.2904257,57.0714286 C21.2338561,58.8928571 25.4806273,59.9553571 30.1824097,59.9553571 C46.7144834,59.9553571 60.0614787,46.5982143 60.0614787,30.0535714 C59.9098082,20.9464286 55.9663778,12.9017857 49.596221,7.4375 L49.596221,7.4375 L49.596221,7.4375 Z M27.4523425,23.8303571 C30.4857505,24.4375 33.2158177,25.1964286 35.6425441,26.1071429 L39.5859746,7.74107143 C35.7942145,9.86607143 31.8507841,15.1785714 27.4523425,23.8303571 L27.4523425,23.8303571 Z" id="Shape"></path>
                            <g id="Group" transform="translate(75.835200, 17.142857)">
                                <polygon id="Shape" points="246.312731 6.64285714 246.312731 9.67857143 253.137899 9.67857143 253.137899 24.8571429 257.081329 24.8571429 257.081329 9.67857143 263.906497 9.67857143 263.906497 6.64285714"></polygon>
                                <path d="M234.330769,19.8482143 C233.875758,19.0892857 233.724087,17.875 233.724087,16.0535714 C233.724087,14.5357143 233.875758,13.3214286 234.027428,12.5625 C234.63411,10.5892857 235.999143,9.67857143 238.42587,9.67857143 L244.947697,9.67857143 L244.947697,6.64285714 L237.212507,6.64285714 C234.78578,6.64285714 232.965735,7.25 231.600702,8.61607143 C230.235668,9.98214286 229.477316,12.4107143 229.477316,16.0535714 C229.477316,19.0892857 230.083998,21.3660714 231.145691,22.7321429 C232.359054,24.25 234.179099,25.0089286 236.605825,25.0089286 L245.402708,25.0089286 L245.402708,21.9732143 L238.880881,21.9732143 C236.454155,21.6696429 234.937451,21.0625 234.330769,19.8482143 L234.330769,19.8482143 Z" id="Shape"></path>
                                <path d="M226.898919,16.3571429 C227.505601,15.75 227.808942,14.8392857 227.808942,13.625 C227.808942,10.7410714 226.898919,8.76785714 225.230545,7.70535714 C224.017182,6.94642857 222.045467,6.49107143 219.163729,6.49107143 C215.978651,6.49107143 213.703594,7.09821429 212.338561,8.16071429 C211.428538,8.91964286 210.821857,9.98214286 210.518516,11.3482143 C210.215175,12.2589286 210.215175,13.7767857 210.215175,15.75 C210.215175,18.9375 210.670186,21.0625 211.580209,22.4285714 C212.641902,23.9464286 214.461946,24.7053571 217.192014,24.7053571 L227.20226,24.7053571 L227.20226,21.6696429 L218.253707,21.6696429 C216.130321,21.6696429 214.916958,20.9107143 214.613617,19.5446429 C214.461946,18.9375 214.310276,18.0267857 214.310276,17.1160714 L224.927204,17.1160714 C225.685556,17.1160714 226.443908,16.8125 226.898919,16.3571429 L226.898919,16.3571429 Z M222.652148,13.9285714 L214.310276,13.9285714 C214.310276,12.4107143 214.613617,11.3482143 215.068628,10.7410714 C215.82698,9.98214286 217.040343,9.52678571 218.860388,9.52678571 C220.377092,9.52678571 221.590455,9.83035714 222.348807,10.4375 C223.107159,11.0446429 223.4105,11.8035714 223.4105,12.8660714 C223.562171,13.625 223.25883,13.9285714 222.652148,13.9285714 L222.652148,13.9285714 Z" id="Shape"></path>
                                <path d="M207.485108,14.3839286 C208.09179,13.7767857 208.24346,12.7142857 208.24346,11.3482143 C208.24346,9.83035714 207.940119,8.76785714 207.333438,8.00892857 C206.575086,7.09821429 205.210052,6.64285714 203.238337,6.64285714 L195.048135,6.64285714 C193.986442,6.64285714 193.22809,6.94642857 192.621409,7.40178571 C192.014727,7.85714286 191.863057,8.61607143 191.863057,9.52678571 L191.863057,22.125 C191.863057,23.0357143 192.166398,23.7946429 192.621409,24.0982143 C193.07642,24.5535714 193.834772,24.7053571 195.048135,24.7053571 L203.693348,24.7053571 C205.361722,24.7053571 206.575086,24.25 207.485108,23.4910714 C208.24346,22.7321429 208.698471,21.3660714 208.698471,19.5446429 C208.698471,18.1785714 208.39513,17.1160714 207.940119,16.5089286 C207.333438,15.9017857 206.726756,15.4464286 205.665063,15.2946429 L205.665063,15.2946429 C206.120074,15.2946429 206.878426,14.9910714 207.485108,14.3839286 L207.485108,14.3839286 Z M203.541678,21.2142857 C203.238337,21.5178571 202.631655,21.8214286 201.721633,21.8214286 L196.71651,21.8214286 C196.261498,21.8214286 195.958158,21.6696429 195.806487,21.5178571 C195.654817,21.3660714 195.654817,21.0625 195.654817,20.7589286 L195.654817,16.9642857 L201.873303,16.9642857 C202.631655,16.9642857 203.238337,17.1160714 203.541678,17.5714286 C203.845018,17.875 203.996689,18.4821429 203.996689,19.3928571 C204.148359,20.1517857 203.996689,20.7589286 203.541678,21.2142857 L203.541678,21.2142857 Z M203.541678,13.3214286 C203.238337,13.625 202.631655,13.9285714 201.873303,13.9285714 L195.654817,13.9285714 L195.654817,10.7410714 C195.654817,10.4375 195.806487,10.1339286 195.958158,9.98214286 C196.109828,9.83035714 196.413169,9.83035714 196.71651,9.83035714 L202.024974,9.83035714 C202.783326,9.83035714 203.238337,9.98214286 203.693348,10.2857143 C203.996689,10.5892857 204.30003,11.1964286 204.30003,11.9553571 C204.148359,12.5625 203.996689,13.0178571 203.541678,13.3214286 L203.541678,13.3214286 Z" id="Shape"></path>
                                <polygon id="Shape" points="184.886218 13.9285714 176.089335 13.9285714 176.089335 6.64285714 172.145905 6.64285714 172.145905 24.8571429 176.089335 24.8571429 176.089335 16.9642857 184.886218 16.9642857 184.886218 24.8571429 188.829649 24.8571429 188.829649 6.64285714 184.886218 6.64285714"></polygon>
                                <path d="M165.472407,0.571428571 C164.562385,0.571428571 163.955703,0.723214286 163.349021,1.17857143 C162.74234,1.63392857 162.135658,2.24107143 161.528977,3.30357143 L151.822071,19.0892857 C151.51873,19.5446429 151.36706,19.8482143 151.215389,19.8482143 C150.912049,19.8482143 150.760378,19.5446429 150.760378,18.7857143 L150.912049,0.875 L146.361937,0.875 L146.361937,21.0625 C146.361937,23.7946429 147.5753,25.1607143 149.850356,25.1607143 C150.912049,25.1607143 151.822071,24.8571429 152.428753,24.4017857 C152.732093,24.0982143 153.187105,23.6428571 153.642116,22.8839286 L163.500692,6.94642857 C163.955703,6.1875 164.259044,5.88392857 164.410714,5.88392857 C164.714055,5.88392857 164.714055,6.1875 164.714055,6.64285714 L164.562385,24.8571429 L169.112497,24.8571429 L169.112497,4.82142857 C169.112497,1.9375 167.899134,0.571428571 165.472407,0.571428571 L165.472407,0.571428571 Z" id="Shape"></path>
                                <path d="M131.801578,6.33928571 L121.336321,6.33928571 L121.336321,9.52678571 L130.436545,9.52678571 C131.346567,9.52678571 131.953249,9.83035714 132.40826,10.2857143 C132.711601,10.7410714 132.863271,11.3482143 132.863271,12.1071429 L132.863271,13.4732143 L124.82474,13.4732143 C123.308036,13.4732143 122.246343,13.7767857 121.487991,14.5357143 C120.426298,15.4464286 119.971287,16.9642857 119.971287,19.0892857 C119.971287,21.5178571 120.577969,23.1875 121.639661,24.0982143 C122.398013,24.7053571 123.459706,25.0089286 124.97641,25.0089286 L133.773293,25.0089286 C134.986657,25.0089286 135.896679,24.7053571 136.35169,24.25 C136.806701,23.7946429 137.110042,23.0357143 137.110042,21.8214286 L137.110042,12.2589286 C137.110042,8.3125 135.289997,6.33928571 131.801578,6.33928571 L131.801578,6.33928571 Z M133.014941,20.7589286 C133.014941,21.0625 132.863271,21.3660714 132.711601,21.5178571 C132.55993,21.6696429 132.256589,21.6696429 131.801578,21.6696429 L126.189773,21.6696429 C125.583092,21.6696429 125.279751,21.5178571 124.82474,21.0625 C124.521399,20.6071429 124.218058,20 124.218058,19.0892857 C124.218058,18.1785714 124.369729,17.4196429 124.673069,17.1160714 C124.97641,16.6607143 125.431421,16.5089286 126.189773,16.5089286 L133.014941,16.5089286 L133.014941,20.7589286 L133.014941,20.7589286 Z" id="Shape"></path>
                                <path d="M110.871063,6.33928571 L104.349236,6.33928571 C103.287543,6.33928571 102.529191,6.49107143 102.07418,6.94642857 C101.315828,7.55357143 101.012487,8.3125 101.012487,9.22321429 L101.012487,30.7767857 L105.107588,30.7767857 L105.107588,24.8571429 L110.264381,24.8571429 C113.297789,24.8571429 115.572845,23.9464286 116.786208,22.2767857 C117.696231,20.9107143 118.302912,18.4821429 118.302912,15.2946429 C118.302912,12.1071429 117.696231,9.83035714 116.331197,8.46428571 C114.966164,6.94642857 113.146119,6.33928571 110.871063,6.33928571 L110.871063,6.33928571 Z M113.146119,20 C112.387767,21.2142857 111.174404,21.6696429 109.6577,21.6696429 L104.955917,21.6696429 L104.955917,10.2857143 C104.955917,9.98214286 105.107588,9.83035714 105.259258,9.67857143 C105.410928,9.52678571 105.562599,9.375 105.86594,9.375 L109.80937,9.375 C111.629415,9.375 112.691108,10.1339286 113.297789,11.5 C113.60113,12.2589286 113.7528,13.625 113.7528,15.4464286 C113.904471,17.7232143 113.7528,19.2410714 113.146119,20 L113.146119,20 Z" id="Shape"></path>
                                <path d="M97.8274084,16.2053571 C98.43409,15.5982143 98.7374308,14.6875 98.7374308,13.4732143 C98.7374308,10.5892857 97.8274084,8.61607143 96.159034,7.40178571 C94.9456708,6.64285714 92.8222852,6.1875 90.092218,6.1875 C86.9071396,6.1875 84.4804132,6.79464286 83.1153795,7.85714286 C82.2053571,8.61607143 81.5986755,9.67857143 81.2953347,11.0446429 C80.9919939,11.9553571 80.9919939,13.4732143 80.9919939,15.5982143 C80.9919939,18.7857143 81.4470051,21.0625 82.3570275,22.2767857 C83.4187203,23.7946429 85.3904356,24.5535714 87.9688324,24.5535714 L98.2824196,24.5535714 L98.2824196,21.3660714 L89.1821956,21.3660714 C87.05881,21.3660714 85.8454468,20.6071429 85.3904356,19.2410714 C85.2387652,18.6339286 85.0870948,17.7232143 85.0870948,16.6607143 L95.8556932,16.6607143 C96.6140452,16.9642857 97.3723972,16.6607143 97.8274084,16.2053571 L97.8274084,16.2053571 Z M93.5806372,13.7767857 L85.0870948,13.7767857 C85.0870948,12.2589286 85.3904356,11.1964286 85.9971172,10.5892857 C86.7554692,9.83035714 87.9688324,9.375 89.9405476,9.375 C91.4572516,9.375 92.6706148,9.67857143 93.4289668,10.2857143 C94.1873188,10.8928571 94.64233,11.6517857 94.64233,12.7142857 C94.4906596,13.4732143 94.1873188,13.7767857 93.5806372,13.7767857 L93.5806372,13.7767857 Z" id="Shape"></path>
                                <polygon id="Shape" points="62.0331939 9.52678571 69.0100323 9.52678571 69.0100323 24.8571429 73.1051331 24.8571429 73.1051331 9.52678571 80.0819715 9.52678571 80.0819715 6.33928571 62.0331939 6.33928571"></polygon>
                                <path d="M59.9098082,13.3214286 L51.5679362,13.3214286 L51.5679362,6.33928571 L47.4728354,6.33928571 L47.4728354,21.9732143 C47.4728354,23.0357143 47.7761762,23.6428571 48.2311874,24.0982143 C48.6861986,24.5535714 49.4445506,24.7053571 50.354573,24.7053571 L59.7581378,24.7053571 C61.4265123,24.7053571 62.6398755,24.4017857 63.2465571,23.7946429 C64.1565795,22.8839286 64.6115907,21.3660714 64.6115907,19.2410714 C64.6115907,17.1160714 64.1565795,15.5982143 63.3982275,14.6875 C62.4882051,13.7767857 61.4265123,13.3214286 59.9098082,13.3214286 L59.9098082,13.3214286 Z M59.7581378,21.0625 C59.454797,21.5178571 58.8481154,21.6696429 57.938093,21.6696429 L52.629629,21.6696429 C52.1746178,21.6696429 51.871277,21.5178571 51.7196066,21.3660714 C51.5679362,21.2142857 51.4162658,20.9107143 51.4162658,20.3035714 L51.4162658,16.3571429 L58.0897634,16.3571429 C58.8481154,16.3571429 59.454797,16.5089286 59.7581378,16.9642857 C60.0614787,17.2678571 60.2131491,18.0267857 60.2131491,18.9375 C60.3648195,20 60.2131491,20.7589286 59.7581378,21.0625 L59.7581378,21.0625 Z" id="Shape"></path>
                                <path d="M36.2492258,6.1875 C34.8841921,6.1875 33.9741697,6.64285714 33.5191585,7.70535714 L26.2389793,24.25 L17.2904257,2.84821429 C16.8354145,1.78571429 16.3804033,1.17857143 15.7737217,0.723214286 C15.1670401,0.267857143 14.4086881,0.116071429 13.3469953,0.116071429 C12.2853025,0.116071429 11.37528,0.267857143 10.9202688,0.723214286 C10.3135872,1.17857143 9.85857604,1.78571429 9.40356484,2.84821429 L0,24.8571429 L4.85345282,24.8571429 L7.28017923,18.6339286 L19.1104705,18.6339286 L21.6888673,24.8571429 L26.0873089,24.8571429 L26.5423201,24.8571429 L30.1824097,24.8571429 L35.7942145,10.5892857 C35.9458849,10.2857143 36.0975554,10.1339286 36.0975554,10.1339286 C36.2492258,10.1339286 36.2492258,10.2857143 36.4008962,10.5892857 L42.012701,24.8571429 L46.2594722,24.8571429 L38.8276226,7.70535714 C38.5242818,6.64285714 37.6142594,6.1875 36.2492258,6.1875 L36.2492258,6.1875 Z M8.49354244,15.4464286 L12.4369729,5.42857143 C12.7403137,4.82142857 12.8919841,4.36607143 13.1953249,4.36607143 C13.3469953,4.36607143 13.6503361,4.66964286 13.9536769,5.42857143 L17.8971073,15.4464286 L8.49354244,15.4464286 L8.49354244,15.4464286 Z" id="Shape"></path>
                            </g>
                            <path d="M354.634,34.516 C357.210013,34.516 359.407991,35.4259909 361.228,37.246 C363.048009,39.0660091 363.958,41.2639871 363.958,43.84 C363.958,46.444013 363.048009,48.6559909 361.228,50.476 C359.407991,52.2960091 357.210013,53.206 354.634,53.206 C352.029987,53.206 349.818009,52.2960091 347.998,50.476 C346.177991,48.6559909 345.268,46.444013 345.268,43.84 C345.268,41.2639871 346.177991,39.0660091 347.998,37.246 C349.818009,35.4259909 352.029987,34.516 354.634,34.516 Z M354.634,51.946 C356.846011,51.946 358.735992,51.1550079 360.304,49.573 C361.872008,47.9909921 362.656,46.0800112 362.656,43.84 C362.656,41.5999888 361.872008,39.6890079 360.304,38.107 C358.735992,36.5249921 356.846011,35.734 354.634,35.734 C352.421989,35.734 350.525008,36.5249921 348.943,38.107 C347.360992,39.6890079 346.57,41.5999888 346.57,43.84 C346.57,46.0800112 347.353992,47.9909921 348.922,49.573 C350.490008,51.1550079 352.393989,51.946 354.634,51.946 Z M356.86,44.134 L356.86,44.218 C357.672004,44.3300006 358.217999,44.8619952 358.498,45.814 L359.758,49.258 L357.994,49.258 L356.818,45.898 C356.509998,45.1419962 355.922004,44.764 355.054,44.764 L352.114,44.764 L352.114,49.258 L350.434,49.258 L350.434,38.38 C351.386005,38.2959996 352.91199,38.254 355.012,38.254 C356.580008,38.254 357.692997,38.4779978 358.351,38.926 C359.009003,39.3740022 359.338,40.199994 359.338,41.404 C359.338,42.2440042 359.149002,42.8809978 358.771,43.315 C358.392998,43.7490022 357.756004,44.0219994 356.86,44.134 Z M352.114,43.546 L354.97,43.546 C355.978005,43.5179999 356.677998,43.3640014 357.07,43.084 C357.462002,42.8039986 357.644,42.3000036 357.616,41.572 C357.644,40.7879961 357.469002,40.2630013 357.091,39.997 C356.712998,39.7309987 356.006005,39.598 354.97,39.598 L352.114,39.598 L352.114,43.546 Z" id="®"></path>
                        </g>
                    </g>
                </g>
            </g>
        </g>
    </g>
</svg>